<?xml version="1.0" encoding="utf-8"?>
<!-- Generator: Adobe Illustrator 24.0.2, SVG Export Plug-In . SVG Version: 6.00 Build 0)  -->
<svg version="1.1" id="Capa_1" xmlns="http://www.w3.org/2000/svg" xmlns:xlink="http://www.w3.org/1999/xlink" x="0px" y="0px"
	 viewBox="0 0 1080 1080" style="enable-background:new 0 0 1080 1080;" xml:space="preserve">
<style type="text/css">
	.st0{fill:#FFFFFF;}
	.st1{fill:#FFFFFF;stroke:#32526E;stroke-width:22.2694;stroke-miterlimit:10;}
	.st2{fill:none;}
	.st3{fill:none;stroke:#32526E;stroke-width:5.089;stroke-miterlimit:10;}
	.st4{fill:#32526E;stroke:#FFFFFF;stroke-width:4.7778;stroke-miterlimit:10;}
	.st5{font-family:'Impact';}
	.st6{font-size:111.3502px;}
	.st7{font-size:100.2152px;}
	.st8{fill:#32526E;}
</style>
<g>
	<rect x="0.5" y="0.5" class="st0" width="1079" height="1079"/>
	<path d="M1079,1v1078H1V1H1079 M1080,0H0v1080h1080V0L1080,0z"/>
</g>
<g>
	<circle class="st1" cx="540" cy="540" r="322.91"/>
	<g>
		<path id="SVGID_x5F_1_x5F_" class="st2" d="M761.81,474.52c44.54,119.79-16.47,253-136.25,297.53s-253-16.47-297.53-136.25
			s16.47-253,136.25-297.53S717.28,354.74,761.81,474.52z"/>
		<text>		<textPath  xlink:href="#SVGID_x5F_1_x5F_" startOffset="84.3913%">
<tspan  class="st8 st5" style="font-size:86.5692px; letter-spacing:210.59;">FUNDACIÓN</tspan>		</textPath>
</text>
	</g>
	<circle class="st3" cx="540" cy="540" r="189.29"/>
	<circle class="st3" cx="541.15" cy="540.9" r="172.13"/>
	<polygon class="st4" points="150.28,606.81 885.18,339.58 862.91,428.65 929.72,473.19 194.82,729.29 217.09,651.35 	"/>
	<text transform="matrix(0.9472 -0.3206 0.3206 0.9472 330.24 656.5197)"><tspan x="0" y="0" class="st0 st5 st6">ANTIVIRUS</tspan><tspan x="469.05" y="0" class="st0 st5 st7"> </tspan></text>
	<g>
		<path id="SVGID_x5F_2_x5F_" class="st2" d="M279.21,631.39c13.39,52.66,42.59,97.86,78.1,129.54s77.06,50.51,119.19,60.33
			c101.4,23.65,211.02-6.91,286.08-94.29s109.5-233.62,74.62-359.27"/>
		<text>		<textPath  xlink:href="#SVGID_x5F_2_x5F_" startOffset="22.1225%">
<tspan  class="st8 st5" style="font-size:86.5696px; letter-spacing:25.84;">PARA LA DESERCIÓN</tspan>		</textPath>
</text>
	</g>
	<g>
		<polygon class="st8" points="569.91,656.69 587.88,655.63 597.21,640.21 603.77,656.99 621.31,661.09 607.38,672.51 608.9,690.46 
			593.73,680.75 577.13,687.74 581.68,670.31 		"/>
		<polygon class="st8" points="623.78,634.33 635.61,632.21 640.56,621.26 646.24,631.86 658.18,633.19 649.86,641.86 
			652.28,653.63 641.47,648.39 631.02,654.33 632.66,642.43 		"/>
		<polygon class="st8" points="651.05,603.36 660.44,599.67 662.72,589.84 669.14,597.63 679.19,596.76 673.76,605.27 677.7,614.56 
			667.93,612.03 660.3,618.64 659.69,608.57 		"/>
		<polygon class="st8" points="550.43,668.57 541.98,677.11 530.15,674.98 535.66,685.66 529.99,696.26 541.85,694.32 
			550.17,702.99 551.99,691.11 562.8,685.87 552.07,680.47 		"/>
		<polygon class="st8" points="504.25,662.73 495.88,668.37 486.49,664.68 489.27,674.38 482.86,682.17 492.94,682.53 
			498.37,691.03 501.82,681.55 511.59,679.02 503.64,672.8 		"/>
	</g>
	<g>
		<g>
			<polygon class="st8" points="517.62,428.54 499.25,428.35 488.68,443.38 483.19,425.85 465.63,420.44 480.6,409.79 
				480.32,391.42 495.07,402.37 512.46,396.43 506.6,413.84 			"/>
			<polygon class="st8" points="461.23,447.49 449.05,448.82 443.23,459.61 438.2,448.43 426.14,446.23 435.22,438 433.58,425.85 
				444.22,431.94 455.27,426.63 452.77,438.63 			"/>
			<polygon class="st8" points="431.3,477.09 421.48,480.18 418.47,490.03 412.49,481.65 402.2,481.82 408.32,473.55 404.97,463.81 
				414.73,467.08 422.96,460.89 422.87,471.18 			"/>
			<polygon class="st8" points="538.28,417.82 547.48,409.72 559.37,412.72 554.51,401.46 561.03,391.08 548.83,392.22 
				540.97,382.81 538.28,394.77 526.91,399.34 537.45,405.59 			"/>
			<polygon class="st8" points="584.86,427.01 593.77,421.85 603.07,426.27 600.92,416.21 608,408.73 597.76,407.66 592.84,398.62 
				588.66,408.03 578.54,409.92 586.19,416.8 			"/>
		</g>
	</g>
</g>
</svg>
